<svg xmlns="http://www.w3.org/2000/svg" x="0px" y="0px" width="100" height="100" viewBox="0,0,256,256">
<g fill="none" fill-rule="nonzero" stroke="none" stroke-width="1" stroke-linecap="butt" stroke-linejoin="miter" stroke-miterlimit="10" stroke-dasharray="" stroke-dashoffset="0" font-family="none" font-weight="none" font-size="none" text-anchor="none" style="mix-blend-mode: normal"><g transform="scale(2.56,2.56)"><path d="M87.215,57.252c1.135,-2.155 1.785,-4.605 1.785,-7.21c0,-6.621 -4.159,-12.257 -10.001,-14.478c0,-0.007 0.001,-0.014 0.001,-0.022c0,-11.598 -9.402,-21 -21,-21c-9.784,0 -17.981,6.701 -20.313,15.757c-1.476,-0.485 -3.049,-0.757 -4.687,-0.757c-7.692,0 -14.023,5.793 -14.89,13.252c-5.204,1.101 -9.11,5.717 -9.11,11.248c0,6.351 5.149,11.5 11.5,11.5c0.177,0 0.352,-0.012 0.526,-0.022c-0.004,0.175 -0.026,0.346 -0.026,0.522c0,11.322 9.178,20.5 20.5,20.5c6.437,0 12.175,-2.972 15.934,-7.614c2.178,2.225 5.206,3.614 8.566,3.614c4.65,0 8.674,-2.65 10.666,-6.518c1.052,0.335 2.171,0.518 3.334,0.518c6.075,0 11,-4.925 11,-11c0,-3.311 -1.47,-6.273 -3.785,-8.29z" fill="#339af0"></path><path d="M67.125,33.042c0,0 -3.64,0 -6.125,0c-2.485,0 -4.5,-2.015 -4.5,-4.5c0,-2.333 1.782,-4.229 4.055,-4.455c-0.022,-0.181 -0.055,-0.358 -0.055,-0.545c0,-2.485 2.015,-4.5 4.5,-4.5c1.438,0 2.703,0.686 3.527,1.736c0.14,-2.636 2.302,-4.736 4.973,-4.736c2.761,0 5,2.239 5,5c0,0.446 -0.077,0.87 -0.187,1.282c0.642,-0.777 1.6,-1.282 2.687,-1.282c1.781,0 3.234,1.335 3.455,3.055c0.181,-0.022 0.358,-0.055 0.545,-0.055c2.485,0 4.5,2.015 4.5,4.5c0,2.485 -2.015,4.5 -4.5,4.5c-2.485,0 -9.5,0 -9.5,0h-5.375v0.5h-3z" fill="#fdfcef"></path><path d="M73.5,15.542c3.033,0 5.5,2.467 5.5,5.5c0,0.016 0,0.031 0,0.047c0.602,-0.355 1.29,-0.547 2,-0.547c1.831,0 3.411,1.261 3.858,3.005c0.047,-0.003 0.094,-0.005 0.142,-0.005c2.757,0 5,2.243 5,5c0,2.757 -2.243,5 -5,5h-14.875c-0.276,0 -0.5,-0.224 -0.5,-0.5c0,-0.276 0.224,-0.5 0.5,-0.5h14.875c2.206,0 4,-1.794 4,-4c0,-2.206 -1.794,-4 -4,-4c-0.117,0 -0.23,0.017 -0.343,0.032l-0.141,0.019c-0.021,0.003 -0.041,0.004 -0.062,0.004c-0.246,0 -0.462,-0.185 -0.495,-0.437c-0.191,-1.493 -1.463,-2.618 -2.959,-2.618c-0.885,0 -1.723,0.401 -2.301,1.1c-0.098,0.118 -0.241,0.182 -0.386,0.182c-0.078,0 -0.156,-0.018 -0.228,-0.056c-0.209,-0.107 -0.314,-0.346 -0.254,-0.573c0.115,-0.435 0.169,-0.801 0.169,-1.153c0,-2.481 -2.019,-4.5 -4.5,-4.5c-2.381,0 -4.347,1.872 -4.474,4.263c-0.011,0.208 -0.15,0.387 -0.349,0.45c-0.05,0.016 -0.101,0.024 -0.152,0.024c-0.15,0 -0.296,-0.069 -0.392,-0.192c-0.771,-0.982 -1.912,-1.545 -3.133,-1.545c-2.206,0 -4,1.794 -4,4c0,0.117 0.017,0.23 0.032,0.343l0.019,0.141c0.016,0.134 -0.022,0.268 -0.106,0.373c-0.084,0.105 -0.207,0.172 -0.34,0.185c-2.056,0.205 -3.605,1.907 -3.605,3.958c0,2.206 1.794,4 4,4h6.125c0.276,0 0.5,0.224 0.5,0.5c0,0.276 -0.224,0.5 -0.5,0.5h-6.125c-2.757,0 -5,-2.243 -5,-5c0,-2.397 1.689,-4.413 4.003,-4.877c-0.002,-0.041 -0.003,-0.082 -0.003,-0.123c0,-2.757 2.243,-5 5,-5c1.176,0 2.293,0.416 3.183,1.164c0.598,-2.404 2.762,-4.164 5.317,-4.164z" fill="#472b29"></path><path d="M75,22.542c1.403,0 2.609,0.999 2.913,2.341c0.367,-0.222 0.786,-0.341 1.212,-0.341c1.202,0 2.198,0.897 2.353,2.068c0.203,-0.046 0.396,-0.068 0.585,-0.068c1.529,0 2.811,1.2 2.918,2.732c0.009,0.138 -0.095,0.258 -0.232,0.268c-0.006,0 -0.012,0 -0.018,0c-0.13,0 -0.24,-0.101 -0.249,-0.232c-0.089,-1.271 -1.151,-2.268 -2.419,-2.268c-0.229,0 -0.47,0.042 -0.738,0.127c-0.022,0.007 -0.045,0.01 -0.067,0.01c-0.055,0 -0.11,-0.02 -0.156,-0.054c-0.064,-0.046 -0.102,-0.128 -0.102,-0.208c0,-1.034 -0.841,-1.875 -1.875,-1.875c-0.447,0 -0.885,0.168 -1.231,0.473c-0.047,0.041 -0.106,0.063 -0.165,0.063c-0.032,0 -0.063,-0.006 -0.093,-0.019c-0.088,-0.035 -0.148,-0.117 -0.155,-0.212c-0.104,-1.293 -1.193,-2.305 -2.481,-2.305c-0.208,0 -0.425,0.034 -0.682,0.107c-0.023,0.007 -0.047,0.01 -0.07,0.01c-0.109,0 -0.207,-0.073 -0.239,-0.182c-0.038,-0.133 0.039,-0.271 0.172,-0.309c0.302,-0.086 0.563,-0.126 0.819,-0.126z" fill="#472b29"></path><path d="M61.117,24.042c1.326,0 2.508,0.897 2.874,2.182c0.038,0.133 -0.039,0.271 -0.172,0.309c-0.024,0.006 -0.047,0.009 -0.069,0.009c-0.109,0 -0.209,-0.072 -0.24,-0.182c-0.305,-1.07 -1.289,-1.818 -2.393,-1.818c-0.117,0 -0.23,0.014 -0.342,0.029c-0.012,0.002 -0.023,0.003 -0.035,0.003c-0.121,0 -0.229,-0.092 -0.246,-0.217c-0.019,-0.137 0.077,-0.263 0.214,-0.281c0.134,-0.018 0.27,-0.034 0.409,-0.034z" fill="#472b29"></path><path d="M75.5,74.542h-10c-0.276,0 -0.5,-0.224 -0.5,-0.5c0,-0.276 0.224,-0.5 0.5,-0.5h10c0.276,0 0.5,0.224 0.5,0.5c0,0.276 -0.224,0.5 -0.5,0.5z" fill="#ffffff"></path><path d="M79.5,74.542h-2c-0.276,0 -0.5,-0.224 -0.5,-0.5c0,-0.276 0.224,-0.5 0.5,-0.5h2c0.276,0 0.5,0.224 0.5,0.5c0,0.276 -0.224,0.5 -0.5,0.5z" fill="#ffffff"></path><path d="M84.5,76.542h-10c-0.276,0 -0.5,-0.224 -0.5,-0.5c0,-0.276 0.224,-0.5 0.5,-0.5h10c0.276,0 0.5,0.224 0.5,0.5c0,0.276 -0.223,0.5 -0.5,0.5z" fill="#ffffff"></path><path d="M72.5,76.542h-1c-0.276,0 -0.5,-0.224 -0.5,-0.5c0,-0.276 0.224,-0.5 0.5,-0.5h1c0.276,0 0.5,0.224 0.5,0.5c0,0.276 -0.224,0.5 -0.5,0.5z" fill="#ffffff"></path><path d="M69.47,76.542h-1.97c-0.276,0 -0.5,-0.224 -0.5,-0.5c0,-0.276 0.224,-0.5 0.5,-0.5h1.97c0.276,0 0.5,0.224 0.5,0.5c0,0.276 -0.224,0.5 -0.5,0.5z" fill="#ffffff"></path><path d="M78.5,72.542h-5c-0.276,0 -0.5,-0.224 -0.5,-0.5c0,-0.276 0.224,-0.5 0.5,-0.5h5c0.276,0 0.5,0.224 0.5,0.5c0,0.276 -0.223,0.5 -0.5,0.5z" fill="#ffffff"></path><path d="M75.5,78.542h-2c-0.276,0 -0.5,-0.224 -0.5,-0.5c0,-0.276 0.224,-0.5 0.5,-0.5h2c0.276,0 0.5,0.224 0.5,0.5c0,0.276 -0.224,0.5 -0.5,0.5z" fill="#ffffff"></path><path d="M40.5,24.542h10c0.276,0 0.5,-0.224 0.5,-0.5c0,-0.276 -0.224,-0.5 -0.5,-0.5h-10c-0.276,0 -0.5,0.224 -0.5,0.5c0,0.276 0.224,0.5 0.5,0.5z" fill="#ffffff"></path><path d="M36.5,24.542h2c0.276,0 0.5,-0.224 0.5,-0.5c0,-0.276 -0.224,-0.5 -0.5,-0.5h-2c-0.276,0 -0.5,0.224 -0.5,0.5c0,0.276 0.224,0.5 0.5,0.5z" fill="#ffffff"></path><path d="M31.5,26.542h10c0.276,0 0.5,-0.224 0.5,-0.5c0,-0.276 -0.224,-0.5 -0.5,-0.5h-10c-0.276,0 -0.5,0.224 -0.5,0.5c0,0.276 0.223,0.5 0.5,0.5z" fill="#ffffff"></path><path d="M43.5,26.542h1c0.276,0 0.5,-0.224 0.5,-0.5c0,-0.276 -0.224,-0.5 -0.5,-0.5h-1c-0.276,0 -0.5,0.224 -0.5,0.5c0,0.276 0.224,0.5 0.5,0.5z" fill="#ffffff"></path><path d="M46.53,26.542h1.97c0.276,0 0.5,-0.224 0.5,-0.5c0,-0.276 -0.224,-0.5 -0.5,-0.5h-1.97c-0.276,0 -0.5,0.224 -0.5,0.5c0,0.276 0.224,0.5 0.5,0.5z" fill="#ffffff"></path><path d="M37.5,22.542h5c0.276,0 0.5,-0.224 0.5,-0.5c0,-0.276 -0.224,-0.5 -0.5,-0.5h-5c-0.276,0 -0.5,0.224 -0.5,0.5c0,0.276 0.223,0.5 0.5,0.5z" fill="#ffffff"></path><path d="M40.5,28.542h2c0.276,0 0.5,-0.224 0.5,-0.5c0,-0.276 -0.224,-0.5 -0.5,-0.5h-2c-0.276,0 -0.5,0.224 -0.5,0.5c0,0.276 0.224,0.5 0.5,0.5z" fill="#ffffff"></path><path d="M27.477,81.019c0,0 -1.567,0 -3.5,0c-1.933,0 -3.5,-1.567 -3.5,-3.5c0,-1.781 1.335,-3.234 3.055,-3.455c-0.028,-0.179 -0.055,-0.358 -0.055,-0.545c0,-1.933 1.567,-3.5 3.5,-3.5c1.032,0 1.95,0.455 2.59,1.165c0.384,-1.808 1.987,-3.165 3.91,-3.165c2.209,0 4,1.791 4,4c0,0.191 -0.03,0.374 -0.056,0.558c0.428,-0.344 0.965,-0.558 1.556,-0.558c1.228,0 2.245,0.887 2.455,2.055c0.179,-0.028 0.358,-0.055 0.545,-0.055c1.933,0 3.5,1.567 3.5,3.5c0,1.933 -1.567,3.5 -3.5,3.5c-1.933,0 -7.5,0 -7.5,0v0.5h-7z" fill="#fdfcef"></path><path d="M25.727,76.519c0.138,0 0.25,-0.112 0.25,-0.25c0,-1.223 -0.995,-2.218 -2.218,-2.218c-0.034,0.009 -0.737,-0.001 -1.244,0.136c-0.133,0.036 -0.212,0.173 -0.176,0.306c0.036,0.134 0.173,0.213 0.306,0.176c0.444,-0.12 1.1,-0.12 1.113,-0.118c0.948,0 1.719,0.771 1.719,1.718c0,0.138 0.111,0.25 0.25,0.25z" fill="#472b29"></path><circle cx="32.477" cy="81.019" r="0.5" fill="#472b29"></circle><path d="M23.977,81.519h3.5c0.276,0 0.5,-0.224 0.5,-0.5c0,-0.276 -0.224,-0.5 -0.5,-0.5h-3.5c-1.654,0 -3,-1.346 -3,-3c0,-1.496 1.125,-2.768 2.618,-2.959c0.134,-0.018 0.255,-0.088 0.336,-0.196c0.081,-0.108 0.115,-0.244 0.094,-0.377c-0.024,-0.153 -0.049,-0.308 -0.049,-0.468c0,-1.654 1.346,-3 3,-3c0.85,0 1.638,0.355 2.219,1c0.125,0.139 0.321,0.198 0.5,0.148c0.182,-0.049 0.321,-0.195 0.36,-0.379c0.341,-1.604 1.779,-2.769 3.42,-2.769c1.93,0 3.5,1.57 3.5,3.5c0,0.143 -0.021,0.28 -0.041,0.418c-0.029,0.203 0.063,0.438 0.242,0.54c0.179,0.102 0.396,0.118 0.556,-0.01c0.365,-0.293 0.794,-0.448 1.243,-0.448c0.966,0 1.792,0.691 1.963,1.644c0.048,0.267 0.296,0.446 0.569,0.405c0.153,-0.024 0.308,-0.049 0.468,-0.049c1.654,0 3,1.346 3,3c0,1.654 -1.346,3 -3,3h-7.5c-0.276,0 -0.5,0.224 -0.5,0.5c0,0.276 0.224,0.5 0.5,0.5h7.5c2.206,0 4,-1.794 4,-4c0,-2.206 -1.794,-4 -4,-4c-0.059,0 -0.116,0.002 -0.174,0.006c-0.414,-1.186 -1.537,-2.006 -2.826,-2.006c-0.349,0 -0.689,0.061 -1.011,0.18c-0.165,-2.333 -2.115,-4.18 -4.489,-4.18c-1.831,0 -3.466,1.127 -4.153,2.774c-0.68,-0.499 -1.502,-0.774 -2.347,-0.774c-2.206,0 -4,1.794 -4,4c0,0.048 0.001,0.095 0.004,0.142c-1.743,0.448 -3.004,2.027 -3.004,3.858c0.002,2.205 1.796,4 4.002,4z" fill="#472b29"></path><path d="M29.477,80.519c0.159,0 0.841,0 1,0c0.276,0 0.5,0.224 0.5,0.5c0,0.276 -0.224,0.5 -0.5,0.5c-0.159,0 -0.841,0 -1,0c-0.276,0 -0.5,-0.224 -0.5,-0.5c0,-0.276 0.224,-0.5 0.5,-0.5z" fill="#472b29"></path><g><path d="M74.047,47.596v-2.068h-3.924l-1.725,-0.03c-1.474,0 -2.482,0.97 -2.878,2.098v-2.068h-4.394v13.412h4.394v-2.876v-4.452c0,-1.337 1.084,-2.421 2.421,-2.421h1.713v9.749h4.394v-2.876v-4.452c0,-1.337 1.084,-2.421 2.421,-2.421h2.182v-3.664l-1.725,-0.03c-1.475,0 -2.482,0.971 -2.879,2.099z" fill="#ffffff"></path><path d="M43.263,45.528l-2.358,7.751l-2.358,-7.751h-4.394l4.774,13.412h0.256h3.444h0.256l4.773,-13.412z" fill="#ffffff"></path><path d="M25.308,45.528v-0.894c0,-0.783 0.635,-1.418 1.418,-1.418h2.774v-3.679h-3.81c-2.637,0 -4.775,2.138 -4.775,4.775v1.216h-2.569v3.555h2.569v9.857h4.394v-9.857h4.191v9.857h4.394v-9.857v-3.555h-4.394z" fill="#ffffff"></path><path d="M53.748,45.347h-0.535c-3.6,0 -6.518,2.918 -6.518,6.518v0.737c0,3.6 2.918,6.518 6.518,6.518h1.189c2.465,0 4.574,-1.522 5.441,-3.676l-3.876,-1.132c0,0 -0.464,1.328 -2.08,1.328c-1.825,0 -2.792,-1 -2.919,-2.132h-0.001v-0.007c-0.009,-0.082 -0.014,-0.165 -0.014,-0.249h4.957h4.358v-1.387c-0.002,-3.6 -2.92,-6.518 -6.52,-6.518zM50.957,50.666c0.053,-1.206 1.045,-2.168 2.264,-2.168h0.419c1.219,0 2.211,0.962 2.264,2.168z" fill="#ffffff"></path><path d="M81.425,53.853c-1.509,0 -2.732,1.223 -2.732,2.732c0,1.509 1.223,2.732 2.732,2.732c1.509,0 2.732,-1.223 2.732,-2.732c0,-1.509 -1.223,-2.732 -2.732,-2.732z" fill="#1dbf73"></path><g fill="#472b29"><path d="M74.048,59.573h-4.394c-0.35,0 -0.633,-0.283 -0.633,-0.633v-9.115h-1.08c-0.986,0 -1.788,0.802 -1.788,1.788v7.328c0,0.35 -0.283,0.633 -0.633,0.633h-4.393c-0.35,0 -0.633,-0.283 -0.633,-0.633v-13.414c0,-0.35 0.283,-0.633 0.633,-0.633h4.393c0.35,0 0.633,0.283 0.633,0.633v0.102c0.57,-0.457 1.317,-0.765 2.245,-0.765l1.736,0.03h3.914c0.35,0 0.633,0.283 0.633,0.633v0.102c0.57,-0.457 1.316,-0.765 2.245,-0.765l1.735,0.03c0.345,0.006 0.622,0.287 0.622,0.633v3.664c0,0.35 -0.283,0.633 -0.633,0.633h-2.182c-0.986,0 -1.788,0.802 -1.788,1.788v7.328c0.001,0.35 -0.283,0.633 -0.632,0.633zM70.286,58.307h3.128v-6.695c0,-1.684 1.37,-3.054 3.054,-3.054h1.549v-2.409l-1.102,-0.019c-1.237,0 -1.986,0.866 -2.271,1.675c-0.102,0.291 -0.396,0.467 -0.704,0.414c-0.304,-0.052 -0.526,-0.315 -0.526,-0.624v-1.435l-5.027,-0.03c-1.236,0 -1.986,0.866 -2.271,1.676c-0.102,0.29 -0.397,0.466 -0.704,0.414c-0.304,-0.052 -0.526,-0.315 -0.526,-0.624v-1.436h-3.127v12.146h3.127v-6.695c0,-1.684 1.37,-3.054 3.054,-3.054h1.713c0.35,0 0.633,0.283 0.633,0.633z"></path><path d="M42.883,59.573h-3.956c-0.268,0 -0.507,-0.169 -0.596,-0.421l-4.773,-13.412c-0.069,-0.194 -0.04,-0.409 0.079,-0.577c0.119,-0.168 0.312,-0.268 0.517,-0.268h4.393c0.279,0 0.524,0.182 0.606,0.449l1.752,5.761l1.753,-5.761c0.081,-0.267 0.327,-0.449 0.606,-0.449h4.393c0.206,0 0.398,0.1 0.517,0.268c0.118,0.168 0.147,0.383 0.079,0.577l-4.773,13.413c-0.09,0.251 -0.329,0.42 -0.597,0.42zM39.374,58.307h3.063l4.323,-12.146h-3.027l-2.221,7.303c-0.081,0.267 -0.328,0.449 -0.606,0.449v0c-0.279,0 -0.524,-0.182 -0.606,-0.449l-2.22,-7.303h-3.027z"></path><path d="M33.893,59.573h-4.394c-0.35,0 -0.633,-0.283 -0.633,-0.633v-9.224h-2.925v9.224c0,0.35 -0.283,0.633 -0.633,0.633h-4.394c-0.35,0 -0.633,-0.283 -0.633,-0.633v-9.224h-1.935c-0.35,0 -0.633,-0.283 -0.633,-0.633v-3.555c0,-0.35 0.283,-0.633 0.633,-0.633h1.935v-0.583c0,-2.982 2.426,-5.408 5.409,-5.408h3.81c0.35,0 0.633,0.283 0.633,0.633v3.679c0,0.35 -0.283,0.633 -0.633,0.633h-2.773c-0.433,0 -0.785,0.352 -0.785,0.785v0.261h7.952c0.35,0 0.633,0.283 0.633,0.633v13.412c0,0.35 -0.284,0.633 -0.634,0.633zM30.132,58.307h3.128v-12.147h-7.952c-0.35,0 -0.633,-0.283 -0.633,-0.633v-0.894c0,-1.131 0.92,-2.051 2.051,-2.051h2.14v-2.413h-3.176c-2.284,0 -4.143,1.858 -4.143,4.142v1.216c0,0.35 -0.283,0.633 -0.633,0.633h-1.935v2.289h1.935c0.35,0 0.633,0.283 0.633,0.633v9.224h3.128v-9.224c0,-0.35 0.283,-0.633 0.633,-0.633h4.191c0.35,0 0.633,0.283 0.633,0.633z"></path><path d="M54.402,59.754h-1.188c-3.944,0 -7.152,-3.208 -7.152,-7.151v-0.737c0,-3.943 3.208,-7.151 7.152,-7.151h0.534c3.943,0 7.151,3.208 7.151,7.151v1.387c0,0.35 -0.283,0.633 -0.633,0.633h-3.504l3.258,0.951c0.171,0.05 0.313,0.17 0.392,0.331c0.078,0.161 0.085,0.347 0.018,0.513c-0.996,2.474 -3.361,4.073 -6.028,4.073zM53.214,45.98c-3.246,0 -5.886,2.64 -5.886,5.885v0.737c0,3.245 2.641,5.885 5.886,5.885h1.188c1.909,0 3.627,-1.018 4.548,-2.645l-2.674,-0.78c-0.354,0.515 -1.075,1.211 -2.39,1.211c-2.242,0 -3.397,-1.353 -3.547,-2.695c-0.012,-0.113 -0.019,-0.219 -0.019,-0.326c0,-0.35 0.283,-0.633 0.633,-0.633h8.682v-0.754c0,-3.246 -2.64,-5.885 -5.885,-5.885zM51.715,53.886c0.258,0.6 0.921,1.122 2.171,1.122c1.11,0 1.451,-0.818 1.486,-0.911c0.031,-0.08 0.076,-0.151 0.132,-0.211zM55.904,51.298h-4.948c-0.173,0 -0.338,-0.071 -0.457,-0.196c-0.119,-0.125 -0.183,-0.293 -0.175,-0.466c0.07,-1.554 1.342,-2.772 2.897,-2.772h0.418c1.555,0 2.827,1.218 2.897,2.772c0.008,0.173 -0.056,0.341 -0.175,0.466c-0.119,0.126 -0.284,0.196 -0.457,0.196zM51.76,50.032h3.341c-0.268,-0.537 -0.823,-0.901 -1.461,-0.901h-0.418c-0.639,0 -1.194,0.365 -1.462,0.901z"></path><path d="M81.425,59.949c-1.855,0 -3.365,-1.509 -3.365,-3.364c0,-1.855 1.51,-3.365 3.365,-3.365c1.855,0 3.365,1.509 3.365,3.365c0,1.854 -1.51,3.364 -3.365,3.364zM81.425,54.486c-1.157,0 -2.099,0.941 -2.099,2.099c0,1.157 0.941,2.098 2.099,2.098c1.158,0 2.099,-0.941 2.099,-2.098c0,-1.158 -0.941,-2.099 -2.099,-2.099z"></path></g></g></g></g>
</svg>